<svg width="15" height="8" viewBox="0 0 15 8" fill="none" xmlns="http://www.w3.org/2000/svg">
<path fill-rule="evenodd" clip-rule="evenodd" d="M0.79422 0.658075C0.959875 0.514386 1.18317 0.43519 1.415 0.437901C1.64682 0.440612 1.8682 0.525009 2.03045 0.672532L7.47514 5.62454L13.0341 0.801217C13.1157 0.727979 13.2128 0.669937 13.32 0.630479C13.4271 0.591022 13.5421 0.570938 13.6582 0.571399C13.7743 0.571861 13.8892 0.592859 13.9962 0.633168C14.1031 0.673476 14.2001 0.732289 14.2813 0.806174C14.3626 0.880059 14.4265 0.967536 14.4693 1.0635C14.5122 1.15947 14.5331 1.262 14.5309 1.36511C14.5286 1.46823 14.5033 1.56986 14.4564 1.66409C14.4095 1.75831 14.3419 1.84323 14.2575 1.9139L8.07399 7.27911C7.90834 7.4228 7.68504 7.50199 7.45321 7.49928C7.22139 7.49657 7.00001 7.41218 6.83776 7.26465L0.781377 1.7563C0.619178 1.60874 0.529412 1.41014 0.531821 1.2042C0.534229 0.998247 0.628615 0.801807 0.79422 0.658075V0.658075Z" fill="#A5B7C1"/>
</svg>
